<svg baseProfile="tiny" xmlns="http://www.w3.org/2000/svg" width="300" height="40" viewBox="0 0 300 40">
  <g fill="#FFF">
    <path d="M59.273 11.963c1.63 0 3.152.407 4.375 1.094v2.23c-1.158-.857-2.745-1.436-4.396-1.436-3.54 0-6.027 2.66-6.027 6.113s2.488 6.112 6.2 6.112c1.715 0 3.238-.58 4.46-1.565v2.252c-1.244.794-2.94 1.2-4.568 1.2-4.72 0-8.13-3.41-8.13-7.956 0-4.42 3.218-8.043 8.086-8.043zM73.02 11.963c4.503 0 7.892 3.496 7.892 8s-3.39 8-7.893 8-7.894-3.496-7.894-8 3.39-8 7.893-8zm0 14.112c3.388 0 5.854-2.702 5.854-6.112s-2.466-6.112-5.855-6.112c-3.39 0-5.856 2.703-5.856 6.113s2.467 6.112 5.855 6.112zM82.433 24.51c1.458 1.114 3.324 1.586 4.697 1.586 1.844 0 3.153-.836 3.153-2.53 0-1.995-1.823-2.34-3.86-2.918-2.188-.622-4.31-1.523-4.31-4.354 0-2.745 1.994-4.332 5.018-4.332 1.46 0 3.218.364 4.462 1.158v2.145c-1.416-.987-3.174-1.437-4.504-1.437-1.737 0-2.96.75-2.96 2.338 0 1.93 1.802 2.252 3.69 2.788 2.25.643 4.48 1.544 4.48 4.504 0 2.83-2.08 4.504-5.19 4.504-1.5 0-3.323-.408-4.674-1.223v-2.23zM98.303 18.654c-.708-1.008-1.394-2.037-2.08-3.067l-.044.022c.02.92.042 2.1.042 3.366v8.75H94.25V12.2h1.972l5.512 7.893 5.512-7.892h1.952v15.528h-2.037v-8.75c0-1.267.022-2.446.044-3.368l-.043-.022c-.685 1.03-1.372 2.06-2.08 3.067l-3.39 4.847-3.387-4.846zM111.384 12.198h2.037v15.528h-2.036V12.198zM123.694 11.963c1.63 0 3.152.407 4.375 1.094v2.23c-1.16-.857-2.746-1.436-4.397-1.436-3.54 0-6.027 2.66-6.027 6.113s2.488 6.112 6.2 6.112c1.715 0 3.238-.58 4.46-1.565v2.252c-1.244.794-2.94 1.2-4.568 1.2-4.72 0-8.13-3.41-8.13-7.956 0-4.42 3.217-8.043 8.086-8.043zM136.26 12.198h4.268c2.06 0 3.925.322 5.49 1.266 2.232 1.35 3.476 3.732 3.476 6.434 0 2.574-1.116 4.87-3.09 6.263-1.65 1.16-3.71 1.566-6.39 1.566h-3.753V12.198zm4.075 13.684c1.866 0 3.367-.236 4.61-1.03 1.48-.943 2.51-2.7 2.51-4.89 0-2.25-1.094-3.924-2.488-4.846-1.35-.9-3.003-1.072-4.675-1.072h-1.995v11.84h2.038zM151.165 12.198h4.204c1.564 0 3.066.064 4.33.772 1.288.707 2.146 1.91 2.146 3.625 0 1.673-.815 2.938-1.994 3.646-.558.344-1.137.537-1.78.644l4.976 6.842h-2.467l-4.74-6.65h-2.637v6.65h-2.037V12.198zm4.675 7.207c1.373 0 2.338-.172 3.046-.708.58-.43.922-1.072.922-1.93 0-.987-.45-1.76-1.266-2.21-.837-.45-1.823-.514-3.324-.514h-2.016v5.362h2.638zM164.803 12.198h8.965v1.844h-6.928v4.718h6.07v1.78h-6.07v5.34h7.12v1.845h-9.157V12.198zM181.81 12.198h1.952l6.413 15.528h-2.187l-1.737-4.332h-6.99l-1.76 4.332h-2.08l6.39-15.528zm-1.845 9.416h5.576l-1.264-3.217c-.493-1.244-1.008-2.574-1.48-3.84h-.043c-.472 1.267-.987 2.575-1.523 3.905l-1.265 3.152zM195.642 18.654c-.708-1.008-1.394-2.037-2.08-3.067l-.044.022c.02.92.043 2.1.043 3.366v8.75h-1.972V12.2h1.973l5.513 7.893 5.512-7.892h1.952v15.528H204.5v-8.75c0-1.267.02-2.446.043-3.368l-.043-.022c-.686 1.03-1.373 2.06-2.08 3.067l-3.39 4.847-3.388-4.846zM208.723 12.198h8.965v1.844h-6.928v4.718h6.07v1.78h-6.07v5.34h7.12v1.845h-9.157V12.198zM220.11 12.198h4.205c1.565 0 3.067.064 4.332.772 1.287.707 2.145 1.91 2.145 3.625 0 1.673-.815 2.938-1.994 3.646-.558.344-1.137.537-1.78.644l4.976 6.842h-2.467l-4.74-6.65h-2.638v6.65h-2.038V12.198zm4.676 7.207c1.373 0 2.338-.172 3.046-.708.58-.43.922-1.072.922-1.93 0-.987-.45-1.76-1.266-2.21-.837-.45-1.823-.514-3.324-.514h-2.016v5.362h2.638zM243.208 18.654c-.708-1.008-1.394-2.037-2.08-3.067l-.044.022c.02.92.043 2.1.043 3.366v8.75h-1.973V12.2h1.973l5.512 7.893 5.51-7.892h1.953v15.528h-2.037v-8.75c0-1.267.02-2.446.043-3.368l-.044-.022c-.686 1.03-1.373 2.06-2.08 3.067l-3.39 4.847-3.388-4.846zM256.36 20.413V12.2h2.037v8c0 1.908.13 3.11.6 4.01.536 1.007 1.652 1.865 3.69 1.865 1.886 0 3.045-.73 3.645-1.866.493-.923.58-2.167.58-3.926v-8.086h1.973v7.98c0 2.25-.13 3.988-1.03 5.36-.986 1.502-2.852 2.425-5.254 2.425-2.422 0-4.246-.944-5.21-2.424-.902-1.395-1.03-3.197-1.03-5.127zM271.234 24.51c1.458 1.114 3.324 1.586 4.697 1.586 1.845 0 3.154-.836 3.154-2.53 0-1.995-1.823-2.34-3.86-2.918-2.188-.622-4.31-1.523-4.31-4.354 0-2.745 1.994-4.332 5.018-4.332 1.458 0 3.217.364 4.46 1.158v2.145c-1.414-.987-3.173-1.437-4.503-1.437-1.738 0-2.96.75-2.96 2.338 0 1.93 1.8 2.252 3.688 2.788 2.252.643 4.482 1.544 4.482 4.504 0 2.83-2.08 4.504-5.19 4.504-1.5 0-3.324-.408-4.675-1.223v-2.23zM283.17 12.198h2.038v15.528h-2.037V12.198zM295.39 11.963c1.63 0 3.15.407 4.374 1.094v2.23c-1.158-.857-2.745-1.436-4.396-1.436-3.54 0-6.027 2.66-6.027 6.113s2.49 6.112 6.2 6.112c1.716 0 3.24-.58 4.46-1.565v2.252c-1.243.794-2.938 1.2-4.567 1.2-4.72 0-8.13-3.41-8.13-7.956 0-4.42 3.217-8.043 8.086-8.043z"/>
  </g>
  <g fill="#FFF">
    <path d="M28.36 20c0-4.61-3.75-8.36-8.36-8.36-4.61 0-8.36 3.75-8.36 8.36 0 4.61 3.75 8.36 8.36 8.36 4.61 0 8.36-3.75 8.36-8.36zM20 22.192l-3.73 2.71 1.425-4.385-3.73-2.71h4.61L20 13.423l1.425 4.385h4.61l-3.73 2.71 1.426 4.385-3.73-2.71z"/>
    <path d="M28.8 11.194c-1.87-1.87-4.234-3.073-6.797-3.485v2.08c4.787.934 8.4 5.15 8.4 10.21s-3.613 9.276-8.4 10.21v2.075c2.563-.413 4.925-1.614 6.797-3.485 2.35-2.35 3.646-5.478 3.646-8.803 0-3.325-1.295-6.45-3.646-8.803z"/>
    <path d="M20 0C8.954 0 0 8.954 0 20s8.954 20 20 20 20-8.954 20-20S31.046 0 20 0zm-2.087 34.342c-7.017-1.01-12.41-7.047-12.41-14.344s5.393-13.334 12.41-14.344v2.07c-2.533.423-4.866 1.62-6.72 3.47C8.844 13.547 7.55 16.675 7.55 20c0 3.325 1.295 6.452 3.646 8.803 1.852 1.853 4.186 3.05 6.72 3.473v2.07zm2.084.15h-.04v-4.088C14.233 30.38 9.598 25.732 9.598 20S14.23 9.62 19.956 9.597V5.503h.04c8.005 0 14.494 6.49 14.494 14.494s-6.488 14.494-14.493 14.494z"/>
  </g>
</svg>
