<svg baseProfile="tiny" xmlns="http://www.w3.org/2000/svg" width="30" height="30" viewBox="0 0 30 30"><path fill="#010101" d="M21.923 24H8.077C6.927 24 6 23.07 6 21.923V8.077C6 6.927 6.93 6 8.077 6h13.846C23.07 6 24 6.93 24 8.077v13.846C24 23.07 23.07 24 21.923 24M15 11.538c-1.91 0-3.462 1.55-3.462 3.462s1.55 3.462 3.462 3.462 3.462-1.55 3.462-3.462-1.55-3.462-3.462-3.462m6.923-2.77c0-.383-.31-.69-.692-.69h-2.076c-.382 0-.692.31-.692.69v2.078c0 .385.31.692.69.692h2.077c.38 0 .69-.31.69-.692V8.77h.003zm0 4.847h-1.57c.117.44.185.904.185 1.385 0 3.06-2.478 5.538-5.538 5.538S9.462 18.058 9.462 15c0-.482.07-.942.18-1.385H8.077v7.615c0 .38.307.692.692.692h12.46c.382 0 .693-.312.693-.692v-7.615.003-.003z"/></svg>